<?xml version="1.0" encoding="UTF-8"?>
<svg width="73px" height="67px" viewBox="0 0 73 67" version="1.1" xmlns="http://www.w3.org/2000/svg" xmlns:xlink="http://www.w3.org/1999/xlink">
    <!-- Generator: Sketch 52.6 (67491) - http://www.bohemiancoding.com/sketch -->
    <title>Fill 1</title>
    <desc>Created with Sketch.</desc>
    <g id="Page-1" stroke="none" stroke-width="1" fill="none" fill-rule="evenodd">
        <g id="Learn" transform="translate(-494.000000, -648.000000)" fill="#FFFFFF">
            <g id="Group" transform="translate(482.000000, 633.000000)">
                <path d="M37.5014036,15 C36.6719931,15 36,15.6694839 36,16.4992799 L36,25.5007201 C36,26.3305089 36.6719859,27 37.5014036,27 C38.3280069,27 39,26.3305161 39,25.5007201 L39,16.4992799 C39,15.6694911 38.3280141,15 37.5014036,15 Z M22.5013276,17 C22.115981,17 21.7334571,17.1462469 21.4408973,17.4415632 C20.8530342,18.0265653 20.8530342,18.9743767 21.4408973,19.5621868 L27.4404257,25.5612484 C28.0254733,26.1462505 28.9761667,26.1462505 29.5612143,25.5612484 C30.1462619,24.9762463 30.1462619,24.0256269 29.5612143,23.4406248 L23.5616859,17.4415632 C23.2691621,17.1462469 22.8838155,17 22.5012556,17 L22.5013276,17 Z M70.7723586,18.0002827 C69.7862671,17.9917322 68.7802584,18.1769771 67.8141572,18.5759565 L51.692044,25.2560362 C47.8247212,26.857659 45.9751797,31.3205785 47.5768122,35.1905773 L54.2512416,51.3067565 C55.8557194,55.1740559 60.3186659,57.0235863 64.1858428,55.4248088 L80.307956,48.7447291 C84.1752788,47.1431062 86.0248203,42.6801867 84.4231878,38.810188 L77.7459131,22.6940087 C76.5461296,19.7928046 73.7332593,18.0287797 70.7722126,18.0002536 L70.7723586,18.0002827 Z M70.7767771,21.0000435 C72.5584011,21.0029014 74.2229313,22.06215 74.9567777,23.8352269 L81.6407001,39.9813509 C82.6199903,42.3454533 81.532202,44.972177 79.1709855,45.9486922 L63.0190561,52.6411839 C60.6549598,53.6204766 58.0253924,52.5298348 57.0460291,50.1657616 L50.359256,34.0196376 C49.3799658,31.6555351 50.4677542,29.0288115 52.8318212,28.0522962 L68.9837506,21.3598046 C69.5747674,21.1142578 70.1829024,20.9972002 70.7767771,21.0000508 L70.7767771,21.0000435 Z M21.4992799,32 C20.6694911,32 20,32.6719859 20,33.5014036 C20,34.3280069 20.6694839,35 21.4992799,35 L30.5007201,35 C31.3305089,35 32,34.3280141 32,33.5014036 C32,32.6719931 31.3305161,32 30.5007201,32 L21.4992799,32 Z M59.5,31 C58.11872,31 57,32.12184 57,33.5 C57,34.88128 58.11872,36 59.5,36 C60.88128,36 62,34.88128 62,33.5 C62,32.12184 60.88128,31 59.5,31 Z M72.5,37 C71.11872,37 70,38.11872 70,39.5 C70,40.87816 71.11872,42 72.5,42 C73.87816,42 75,40.87816 75,39.5 C75,38.11872 73.87816,37 72.5,37 Z M26.2277859,41.0002536 C23.2667386,41.0287505 20.4538677,42.7928048 19.2540846,45.6940093 L12.5768083,61.8101907 C10.9751755,65.6803359 12.8247467,70.1433289 16.6920411,71.7447331 L32.8141573,78.4248136 C36.6814809,80.0235914 41.1444284,78.1740243 42.7487607,74.3067609 L49.4231916,58.1905795 C51.0248245,54.3204343 49.1752534,49.8574413 45.3079589,48.2560371 L29.185842,41.5759565 C28.2197407,41.1769698 27.2137317,40.9917322 26.22764,41.0002827 L26.2277859,41.0002536 Z M26.2232319,44.0000511 C26.8171054,43.9971932 27.4252317,44.1142579 28.0162546,44.3598044 L44.1681499,51.0522888 C46.5322412,52.0287298 47.6200711,54.6555237 46.6407099,57.0196236 L39.953951,73.1657299 C38.9746628,75.5298297 36.3450278,76.6205142 33.9809365,75.6411494 L17.8290434,68.9486651 C15.4678027,67.972224 14.3799727,65.3454302 15.359334,62.9813303 L22.0432401,46.835224 C22.7770119,45.0621491 24.4415386,44.0028944 26.2232319,44.0000438 L26.2232319,44.0000511 Z M27.5,50 C26.11872,50 25,51.12184 25,52.5 C25,53.88128 26.11872,55 27.5,55 C28.88128,55 30,53.88128 30,52.5 C30,51.12184 28.88128,50 27.5,50 Z M38.5,54 C37.12184,54 36,55.12184 36,56.5 C36,57.88128 37.12184,59 38.5,59 C39.88128,59 41,57.88128 41,56.5 C41,55.12184 39.88128,54 38.5,54 Z M23.5,60 C22.11872,60 21,61.11872 21,62.5 C21,63.87816 22.11872,65 23.5,65 C24.88128,65 26,63.87816 26,62.5 C26,61.11872 24.88128,60 23.5,60 Z M65.5017369,62 C64.6833734,62.0112503 64,62.6776146 64,63.4985964 C64,64.3280069 64.6721351,65 65.5017369,65 L74.5010709,65 C75.3278577,65 76,64.3280141 76,63.4985964 C76,62.6719931 75.3278649,62 74.5010709,62 L65.5017369,62 Z M34.5,65 C33.12184,65 32,66.11872 32,67.5 C32,68.87816 33.12184,70 34.5,70 C35.88128,70 37,68.87816 37,67.5 C37,66.11872 35.88128,65 34.5,65 Z M57.5,70 C56.6782421,70 56.0112392,70.6807321 56,71.4992798 L56,80.5007202 C56,81.3305089 56.6698055,82 57.5,82 C58.3301945,82 59,81.3305161 59,80.5007202 L59,71.4992798 C59,70.6694911 58.3301945,70 57.5,70 Z M66.4999107,71 C66.1169409,71 65.7311598,71.1464039 65.4382645,71.442037 C64.8581762,72.0192194 64.8553647,72.9540072 65.421367,73.539637 L65.4185555,73.5424553 L65.4382645,73.5649795 L71.4249916,79.5507999 C72.0135287,80.1364298 72.9822457,80.1561358 73.5707756,79.5705088 C74.156494,78.9848789 74.1367851,78.0134902 73.548248,77.4278603 L67.5615208,71.442037 L67.5418118,71.4195128 L67.5389932,71.422331 C67.2489526,71.1435928 66.8744245,71 66.4999107,71 Z" id="Fill-1"></path>
            </g>
        </g>
    </g>
</svg>