<?xml version="1.0" encoding="UTF-8"?>
<svg width="372px" height="93px" viewBox="0 0 372 93" version="1.1" xmlns="http://www.w3.org/2000/svg" xmlns:xlink="http://www.w3.org/1999/xlink">
    <!-- Generator: Sketch 53.2 (72643) - https://sketchapp.com -->
    <title>Logo</title>
    <desc>Created with Sketch.</desc>
    <g id="Page-1" stroke="none" stroke-width="1" fill="none" fill-rule="evenodd">
        <g id="Guess-Note" transform="translate(-48.000000, -33.000000)">
            <g id="Logo" transform="translate(41.000000, 11.000000)">
                <g>
                    <path d="M8.39096254,111.314864 C84.0908233,99.443331 199.630412,95.4861534 355.009729,99.443331" id="Path" stroke="#979797" stroke-width="6"></path>
                    <path d="M83.859375,25.875 C83.859375,28.125 77.90625,33.1875 67.171875,33.9375 C63.421875,38.671875 57.65625,46.265625 50.25,57.375 C52.6875,57.46875 54.984375,57.65625 57.1875,57.9375 C59.296875,58.21875 60.140625,59.203125 60.140625,60.375 C60.140625,61.125 58.3125,62.859375 57.46875,63.609375 C56.484375,64.6875 56.390625,65.71875 54.984375,65.71875 C53.90625,65.71875 54.09375,65.625 53.625,65.53125 C52.40625,65.484375 50.484375,65.390625 48.140625,65.390625 C47.203125,65.390625 46.171875,65.4375 45.09375,65.4375 C39.046875,74.859375 28.734375,90.890625 28.171875,91.921875 C27.421875,93.28125 26.8125,94.171875 24.984375,94.171875 C24.46875,94.171875 23.859375,94.078125 23.109375,93.9375 C20.53125,93.46875 19.3125,93.046875 19.3125,91.734375 C19.3125,91.3125 19.5,90.75 19.734375,90.046875 C20.71875,87.234375 29.71875,74.109375 35.484375,65.8125 C28.78125,66.140625 22.40625,66.609375 20.390625,66.796875 C19.921875,66.890625 18.9375,67.359375 18.1875,67.359375 C17.34375,67.359375 16.875,66.5625 16.875,65.71875 C16.875,65.4375 16.96875,65.109375 17.0625,64.875 C18.1875,62.296875 18.75,62.296875 19.171875,61.40625 C19.59375,60.5625 21.140625,58.78125 22.5,58.453125 C23.390625,58.265625 31.640625,57.375 41.4375,57.28125 C44.71875,52.3125 51.140625,42.703125 56.71875,36.1875 C52.59375,36.9375 46.03125,37.78125 35.203125,37.78125 C21.84375,37.78125 17.90625,34.453125 17.90625,30.046875 C17.90625,27.234375 21,24.5625 25.875,24.5625 C28.359375,24.5625 29.15625,25.03125 29.15625,25.359375 C29.15625,25.59375 28.828125,25.78125 28.359375,25.78125 C26.4375,25.78125 25.21875,27.234375 25.21875,28.03125 C25.21875,28.78125 28.171875,30.140625 39.703125,30.140625 C50.578125,30.140625 58.734375,29.34375 64.78125,28.40625 C69.1875,24.75 73.3125,22.265625 78.984375,22.265625 C80.953125,22.265625 82.265625,23.015625 83.015625,24.09375 C83.4375,24.703125 83.8125,25.265625 83.859375,25.875 Z M77.71875,25.03125 C77.0625,25.21875 76.453125,25.5 75.890625,25.78125 C77.0625,25.3125 77.71875,25.125 77.71875,25.03125 Z M94.875,59.109375 C94.875,61.78125 89.296875,69.9375 87.46875,72.375 C86.8125,73.21875 86.015625,73.875 84.796875,73.875 C82.78125,73.875 81.703125,72.09375 81.703125,70.265625 C81.703125,67.546875 83.53125,64.875 85.171875,62.953125 L85.078125,62.859375 C82.640625,63.046875 69.9375,76.40625 67.59375,78.984375 C64.078125,82.828125 60.796875,86.90625 57.703125,91.078125 C57.09375,91.921875 55.921875,93.09375 54.84375,93.09375 C54.046875,93.09375 51,91.921875 50.53125,91.453125 C50.203125,91.265625 50.203125,90.984375 50.203125,90.703125 C50.203125,89.0625 51.984375,86.71875 53.015625,84.9375 C57.046875,77.90625 61.171875,71.015625 65.296875,64.125 C66.65625,61.875 67.78125,59.53125 69.421875,57.46875 C71.015625,55.453125 74.0625,54.796875 76.546875,54.796875 C77.484375,54.796875 77.671875,55.828125 77.671875,56.625 C77.671875,58.828125 72.984375,65.25 71.625,67.453125 C76.03125,62.484375 83.34375,54.890625 90.46875,54.890625 C92.953125,54.890625 94.875,56.53125 94.875,59.109375 Z M122.0625,57.9375 C122.0625,62.109375 118.03125,65.71875 113.859375,65.71875 C112.359375,65.71875 112.171875,64.96875 112.171875,63.609375 C112.171875,63.140625 112.265625,62.765625 112.359375,62.390625 C111,62.859375 109.734375,63.515625 108.515625,64.21875 C106.96875,65.0625 100.546875,69.28125 100.546875,71.015625 C100.546875,71.390625 101.296875,71.390625 101.484375,71.390625 C104.015625,71.390625 106.125,69.84375 108.515625,69.84375 C108.796875,69.84375 109.171875,69.84375 109.453125,69.9375 C110.25,70.359375 111.46875,72.28125 111.46875,73.03125 C111.46875,73.828125 110.4375,74.625 109.828125,75.140625 C108.46875,76.265625 106.875,76.359375 105.421875,77.15625 C103.5,78.234375 95.53125,82.640625 95.53125,84.75 C95.53125,88.03125 99.28125,88.40625 101.765625,88.40625 C108.609375,88.40625 115.125,81.9375 119.4375,78.703125 C119.71875,78.515625 120.140625,78.234375 120.515625,78.234375 C121.734375,78.234375 121.734375,81.09375 121.734375,81.9375 C121.734375,82.734375 121.734375,83.671875 121.453125,84.46875 C121.171875,85.21875 120.234375,86.109375 119.53125,86.671875 C115.03125,90.328125 108.140625,94.828125 100.546875,94.828125 C94.96875,94.828125 87.65625,93.09375 87.65625,86.203125 C87.65625,81 92.203125,78.046875 96.609375,76.40625 C94.03125,75.234375 93.796875,73.40625 93.796875,70.921875 C93.796875,61.6875 109.359375,55.078125 117.328125,55.078125 C118.96875,55.078125 122.0625,55.921875 122.0625,57.9375 Z M119.71875,85.5 C119.8125,78.140625 132.84375,56.90625 137.0625,50.390625 C137.015625,50.34375 129.984375,51.234375 128.953125,51.234375 L128.53125,51.234375 C127.21875,51.234375 124.640625,50.765625 124.640625,48.9375 C124.640625,48.234375 125.8125,47.578125 126.140625,46.640625 C126.609375,45.1875 130.453125,43.125 132,42.984375 C134.015625,42.84375 136.03125,42.796875 138.046875,42.703125 C142.453125,42.515625 137.859375,42.703125 142.265625,42.515625 C144.28125,39.609375 146.296875,36.46875 148.6875,33.84375 C149.25,33.09375 149.34375,32.90625 150.328125,32.90625 C151.078125,32.90625 151.78125,32.625 152.53125,32.625 C153.703125,32.625 153.703125,33.09375 154.453125,33.09375 C155.015625,33.09375 155.53125,33.84375 155.53125,34.359375 C155.53125,35.109375 151.5,41.15625 150.796875,42.328125 C151.40625,42.28125 154.3125,42.046875 155.4375,42.046875 C156.5625,42.046875 157.640625,42.09375 158.015625,42.234375 C159.140625,42.703125 159.46875,43.96875 160.5,44.71875 C160.96875,45.09375 161.296875,45.375 161.296875,46.078125 C161.296875,47.953125 158.953125,48.703125 157.546875,48.84375 C153.234375,49.265625 149.859375,49.734375 145.546875,49.96875 C142.171875,55.171875 128.34375,78.796875 127.6875,83.484375 C127.59375,84.1875 127.5,84.796875 127.5,85.3125 C127.5,87.140625 128.296875,87.609375 129.796875,87.609375 C134.296875,87.609375 142.453125,78.234375 143.625,78.234375 C144.9375,78.234375 144.84375,81.609375 144.84375,82.453125 C144.84375,84.234375 144.1875,85.3125 142.734375,86.578125 C139.59375,89.296875 133.6875,94.78125 128.296875,94.78125 C127.828125,94.78125 127.40625,94.734375 126.984375,94.640625 C122.203125,93.75 119.71875,91.546875 119.71875,85.5 Z M233.90625,27.328125 C227.765625,35.484375 200.71875,71.859375 195.328125,83.953125 C198.890625,83.203125 204.328125,78.421875 210,72.1875 C210.609375,71.484375 211.03125,70.78125 211.40625,70.78125 C212.15625,70.78125 212.4375,74.203125 212.625,75.703125 C212.671875,76.3125 213,76.828125 213,77.484375 C213,78.140625 212.71875,78.984375 211.828125,80.15625 C208.265625,84.84375 196.59375,94.640625 191.671875,94.640625 C187.359375,94.640625 184.96875,91.40625 184.96875,88.40625 C184.96875,88.078125 185.015625,87.75 185.0625,87.421875 C186.28125,80.90625 205.3125,53.71875 214.40625,41.0625 C201.5625,54.328125 171.515625,86.390625 165,91.734375 C164.4375,92.203125 163.78125,92.390625 162.984375,92.390625 C160.640625,92.390625 157.78125,90.515625 157.78125,88.359375 L157.78125,88.125 C158.0625,85.5 173.8125,54.796875 181.6875,41.34375 C171.984375,52.03125 149.953125,79.171875 138.609375,101.90625 C138.046875,103.078125 137.34375,103.40625 136.5,103.40625 C135.796875,103.40625 134.953125,103.171875 133.875,102.890625 C131.4375,102.234375 129.75,100.96875 129.75,98.953125 C129.75,94.40625 172.125,35.109375 186.09375,25.78125 C187.265625,24.984375 188.15625,24.75 188.765625,24.75 C189.796875,24.75 190.21875,25.359375 190.59375,25.359375 C190.734375,25.359375 190.828125,25.3125 190.921875,25.21875 C191.34375,24.703125 192.28125,24.46875 193.359375,24.46875 C195.609375,24.46875 198.5625,25.5 198.5625,26.765625 C198.5625,26.90625 198.515625,27 198.46875,27.140625 C197.53125,29.71875 181.5,57.09375 172.78125,73.96875 C182.15625,62.671875 212.8125,29.8125 222.796875,23.859375 C223.125,23.625 223.546875,23.53125 224.0625,23.53125 C224.90625,23.53125 225.9375,23.765625 227.390625,24.1875 C229.03125,24.65625 231.609375,24.703125 232.359375,24.84375 C233.296875,25.03125 234.1875,25.734375 234.1875,26.578125 C234.1875,26.8125 234.09375,27.09375 233.90625,27.328125 Z M258.140625,79.171875 C258.234375,79.78125 258.421875,81.1875 258.421875,82.453125 C258.421875,83.25 258.375,84 258.140625,84.46875 C256.875,86.953125 249.703125,94.640625 243.421875,94.640625 C238.546875,94.640625 236.4375,90.75 236.4375,86.8125 C236.4375,85.265625 236.765625,83.71875 237.375,82.359375 C232.21875,89.0625 224.625,94.453125 219.9375,94.453125 C215.90625,94.453125 213.09375,91.359375 212.625,88.03125 C212.484375,87.234375 212.4375,86.484375 212.4375,85.6875 C212.4375,71.765625 230.0625,57 240.46875,57 C244.078125,57 246.09375,58.40625 246.609375,59.953125 C248.15625,57.5625 248.90625,57.375 250.828125,57.375 C252.796875,57.375 254.390625,58.125 254.390625,59.8125 C254.390625,60.515625 254.15625,61.359375 253.734375,61.78125 C253.03125,62.53125 245.203125,75.328125 243.65625,83.765625 C243.5625,84.09375 243.515625,84.5625 243.515625,85.078125 C243.515625,86.25 243.84375,87.65625 245.015625,87.65625 C248.765625,87.65625 255.375,79.359375 256.125,78.703125 C256.453125,78.421875 256.828125,78.28125 257.15625,78.28125 C257.671875,78.28125 258.09375,78.65625 258.140625,79.171875 Z M244.59375,62.578125 C241.40625,62.578125 235.265625,63.890625 228,71.484375 C223.875,75.75 219.84375,82.875 219.84375,85.6875 C219.84375,86.4375 220.125,86.859375 220.78125,86.859375 C222.5625,86.859375 233.25,77.53125 236.8125,73.125 C238.921875,70.453125 242.109375,65.90625 244.59375,62.578125 Z M291.1875,57 L291.1875,57.328125 C291.1875,58.828125 290.625,60.5625 290.0625,61.3125 C288.84375,62.953125 285.328125,64.875 282.5625,64.875 C281.015625,64.875 281.109375,64.125 280.453125,63.796875 C280.125,63.65625 279.984375,63.28125 279.984375,62.90625 C279.984375,62.109375 280.6875,61.96875 281.109375,60.65625 C272.296875,61.125 263.25,68.53125 263.25,70.078125 C263.25,71.859375 271.125,71.296875 279.1875,75.046875 C282.09375,76.40625 283.546875,79.265625 283.546875,81 C283.546875,89.4375 268.921875,94.734375 261.140625,94.734375 C254.34375,94.734375 252.234375,91.546875 252.234375,89.15625 C252.234375,85.78125 254.15625,82.640625 256.078125,82.640625 C257.25,82.640625 258.375,82.734375 258.375,83.625 C258.375,83.859375 258.328125,84.140625 258.328125,84.375 C258.328125,86.109375 260.015625,87.234375 260.859375,87.234375 C268.734375,87.234375 275.15625,84.28125 275.15625,82.171875 C275.15625,80.4375 268.734375,79.734375 262.59375,77.90625 C259.453125,76.96875 255.984375,75.5625 255.984375,71.390625 C255.984375,60.09375 277.265625,52.96875 284.390625,52.96875 C291.28125,52.96875 291.1875,56.15625 291.1875,57 Z M287.953125,85.5 C288.046875,78.140625 301.078125,56.90625 305.296875,50.390625 C305.25,50.34375 298.21875,51.234375 297.1875,51.234375 L296.765625,51.234375 C295.453125,51.234375 292.875,50.765625 292.875,48.9375 C292.875,48.234375 294.046875,47.578125 294.375,46.640625 C294.84375,45.1875 298.6875,43.125 300.234375,42.984375 C302.25,42.84375 304.265625,42.796875 306.28125,42.703125 C310.6875,42.515625 306.09375,42.703125 310.5,42.515625 C312.515625,39.609375 314.53125,36.46875 316.921875,33.84375 C317.484375,33.09375 317.578125,32.90625 318.5625,32.90625 C319.3125,32.90625 320.015625,32.625 320.765625,32.625 C321.9375,32.625 321.9375,33.09375 322.6875,33.09375 C323.25,33.09375 323.765625,33.84375 323.765625,34.359375 C323.765625,35.109375 319.734375,41.15625 319.03125,42.328125 C319.640625,42.28125 322.546875,42.046875 323.671875,42.046875 C324.796875,42.046875 325.875,42.09375 326.25,42.234375 C327.375,42.703125 327.703125,43.96875 328.734375,44.71875 C329.203125,45.09375 329.53125,45.375 329.53125,46.078125 C329.53125,47.953125 327.1875,48.703125 325.78125,48.84375 C321.46875,49.265625 318.09375,49.734375 313.78125,49.96875 C310.40625,55.171875 296.578125,78.796875 295.921875,83.484375 C295.828125,84.1875 295.734375,84.796875 295.734375,85.3125 C295.734375,87.140625 296.53125,87.609375 298.03125,87.609375 C302.53125,87.609375 310.6875,78.234375 311.859375,78.234375 C313.171875,78.234375 313.078125,81.609375 313.078125,82.453125 C313.078125,84.234375 312.421875,85.3125 310.96875,86.578125 C307.828125,89.296875 301.921875,94.78125 296.53125,94.78125 C296.0625,94.78125 295.640625,94.734375 295.21875,94.640625 C290.4375,93.75 287.953125,91.546875 287.953125,85.5 Z M341.390625,57.9375 C341.390625,62.109375 337.359375,65.71875 333.1875,65.71875 C331.6875,65.71875 331.5,64.96875 331.5,63.609375 C331.5,63.140625 331.59375,62.765625 331.6875,62.390625 C330.328125,62.859375 329.0625,63.515625 327.84375,64.21875 C326.296875,65.0625 319.875,69.28125 319.875,71.015625 C319.875,71.390625 320.625,71.390625 320.8125,71.390625 C323.34375,71.390625 325.453125,69.84375 327.84375,69.84375 C328.125,69.84375 328.5,69.84375 328.78125,69.9375 C329.578125,70.359375 330.796875,72.28125 330.796875,73.03125 C330.796875,73.828125 329.765625,74.625 329.15625,75.140625 C327.796875,76.265625 326.203125,76.359375 324.75,77.15625 C322.828125,78.234375 314.859375,82.640625 314.859375,84.75 C314.859375,88.03125 318.609375,88.40625 321.09375,88.40625 C327.9375,88.40625 334.453125,81.9375 338.765625,78.703125 C339.046875,78.515625 339.46875,78.234375 339.84375,78.234375 C341.0625,78.234375 341.0625,81.09375 341.0625,81.9375 C341.0625,82.734375 341.0625,83.671875 340.78125,84.46875 C340.5,85.21875 339.5625,86.109375 338.859375,86.671875 C334.359375,90.328125 327.46875,94.828125 319.875,94.828125 C314.296875,94.828125 306.984375,93.09375 306.984375,86.203125 C306.984375,81 311.53125,78.046875 315.9375,76.40625 C313.359375,75.234375 313.125,73.40625 313.125,70.921875 C313.125,61.6875 328.6875,55.078125 336.65625,55.078125 C338.296875,55.078125 341.390625,55.921875 341.390625,57.9375 Z M378.1875,59.109375 C378.1875,61.78125 372.609375,69.9375 370.78125,72.375 C370.125,73.21875 369.328125,73.875 368.109375,73.875 C366.09375,73.875 365.015625,72.09375 365.015625,70.265625 C365.015625,67.546875 366.84375,64.875 368.484375,62.953125 L368.390625,62.859375 C365.953125,63.046875 353.25,76.40625 350.90625,78.984375 C347.390625,82.828125 344.109375,86.90625 341.015625,91.078125 C340.40625,91.921875 339.234375,93.09375 338.15625,93.09375 C337.359375,93.09375 334.3125,91.921875 333.84375,91.453125 C333.515625,91.265625 333.515625,90.984375 333.515625,90.703125 C333.515625,89.0625 335.296875,86.71875 336.328125,84.9375 C340.359375,77.90625 344.484375,71.015625 348.609375,64.125 C349.96875,61.875 351.09375,59.53125 352.734375,57.46875 C354.328125,55.453125 357.375,54.796875 359.859375,54.796875 C360.796875,54.796875 360.984375,55.828125 360.984375,56.625 C360.984375,58.828125 356.296875,65.25 354.9375,67.453125 C359.34375,62.484375 366.65625,54.890625 373.78125,54.890625 C376.265625,54.890625 378.1875,56.53125 378.1875,59.109375 Z" id="FretMaster" fill="#2A2A2A" fill-rule="nonzero"></path>
                </g>
            </g>
        </g>
    </g>
</svg>