<?xml version="1.0" encoding="UTF-8"?>
<svg width="73px" height="67px" viewBox="0 0 73 67" version="1.1" xmlns="http://www.w3.org/2000/svg" xmlns:xlink="http://www.w3.org/1999/xlink">
    <!-- Generator: Sketch 52.6 (67491) - http://www.bohemiancoding.com/sketch -->
    <title>Fill 1</title>
    <desc>Created with Sketch.</desc>
    <g id="Page-1" stroke="none" stroke-width="1" fill="none" fill-rule="evenodd">
        <g id="Learn" transform="translate(-486.000000, -757.000000)" fill="#FFFFFF">
            <path d="M505,804.315502 L502.8878,807.757576 C501.62048,806.874631 500.26732,805.901978 499,804.932858 L501.4488,801.666667 C502.633576,802.639319 503.81514,803.522264 504.999916,804.315502 L505,804.315502 Z M528.166639,808.772727 C526.750648,809.140435 525.415991,809.327888 524,809.511742 L524.332031,813.848485 C525.914021,813.664631 527.499343,813.387051 529,813.019343 L528.166639,808.772727 Z M537.145865,805.727273 C535.732855,806.36252 534.409481,806.836603 533,807.313844 L534.41301,810.80303 C535.912128,810.325822 537.500882,809.6937 539,809.058437 L537.145865,805.727273 Z M543.63366,801.666667 C542.45218,802.549612 541.26732,803.432557 540,804.225795 L542.1122,807.757576 C543.37952,806.874631 544.73268,805.991685 546,805.019033 L543.63366,801.666667 Z M498,798.666523 C496.986806,797.721169 495.88777,796.608301 494.874576,795.575758 L492,798.321198 C493.099035,799.521255 494.198071,800.637556 495.379568,801.666667 L498,798.666523 Z M550.165926,795.575758 C549.167037,796.604289 548.083518,797.63282 547,798.664782 L549.583518,801.666667 C550.748334,800.638135 551.831853,799.522464 553,798.406792 L550.165926,795.575758 Z M515.748702,809.787879 L515,813.312859 C516.582005,813.618077 518.167344,813.773674 519.749349,813.848485 L520,810.24874 C518.580745,810.245752 517.164741,810.018332 515.748652,809.787925 L515.748702,809.787879 Z M557.755681,790.497589 L559,792.02101 L556.012308,794.472967 L554.76799,792.949546 C549.210697,786.013275 543.569123,781.023072 537.681008,777.808389 L498.442668,824 L495.539258,821.376142 L513.873877,799.803927 C509.81043,795.405564 509.641867,788.469632 513.624366,783.816801 C515.69823,781.364844 518.517358,779.923989 521.670295,779.755472 C524.324178,779.586938 526.97806,780.346991 529.136207,781.870395 L534.029199,776.117128 C530.130998,774.593706 526.232797,773.833688 522.25048,773.916254 C503.835395,774.339239 490.397585,792.695925 490.312971,792.864272 L489.152937,794.47026 L486,792.19012 L487.160037,790.584132 C487.740072,789.738162 501.842163,770.535507 522.166032,770.026234 C527.143306,769.8577 531.9555,770.872203 536.767695,772.987126 L550.370585,757 L553.273995,759.623858 L540.331423,774.851304 C546.306724,778.231881 552.11346,783.47596 557.7552,790.49835 L557.755681,790.497589 Z M516.811421,796.590909 L527,784.587078 C525.592599,783.741678 524.016894,783.318978 522.360349,783.404871 C520.289668,783.573292 518.383979,784.504567 516.976578,786.109474 C514.326769,789.236777 514.410839,793.632179 516.81157,796.59074 L516.811421,796.590909 Z" id="Fill-1"></path>
        </g>
    </g>
</svg>